<svg version="1.1" id="Layer_1" xmlns="http://www.w3.org/2000/svg" xmlns:xlink="http://www.w3.org/1999/xlink" x="0px" y="0px"
	 width="100%" viewBox="0 0 224 224" enable-background="new 0 0 224 224" xml:space="preserve">
<path fill="#000000" opacity="1.000000" stroke="none" 
	d="
M131.249420,149.238297 
	C123.800896,146.276428 120.699211,140.738052 120.808891,133.434601 
	C120.860054,130.028961 118.613525,128.851959 116.470818,127.348305 
	C114.254997,125.793343 113.266075,128.024414 111.818375,128.905411 
	C110.260582,129.853363 108.706078,130.873749 107.020393,131.528473 
	C104.609787,132.464783 103.190475,133.698151 103.257477,136.607391 
	C103.321045,139.367722 103.975151,141.057587 106.673706,142.462402 
	C113.314888,145.919662 116.435631,153.119812 114.663551,159.603241 
	C112.646873,166.981567 107.222145,171.279175 99.843483,171.344070 
	C92.636223,171.407471 86.763817,167.133667 84.862381,160.441193 
	C82.825745,153.272842 85.480957,146.434387 92.349220,142.676834 
	C95.209213,141.112152 95.777107,139.184113 95.868149,136.275772 
	C95.965248,133.173660 94.039215,132.453323 91.838730,131.452789 
	C83.933678,127.858482 79.659782,121.566162 79.802719,112.948570 
	C79.941208,104.598640 84.042511,98.362068 91.905434,95.017075 
	C94.026917,94.114578 95.735588,93.327911 95.736092,90.539871 
	C95.736572,87.832268 95.193626,86.052521 92.491478,84.565331 
	C85.324135,80.620613 82.620094,73.302322 85.022415,65.855217 
	C87.187355,59.143990 93.376259,55.197906 100.987328,55.675892 
	C108.298965,56.135067 113.674370,61.225044 115.023575,68.966820 
	C116.014511,74.652863 112.752983,81.299194 107.070847,84.396469 
	C104.674210,85.702866 103.181786,86.932846 103.197037,90.008186 
	C103.213547,93.337540 105.312714,94.173164 107.654366,95.163826 
	C108.723808,95.616264 109.758835,96.173401 110.753479,96.775543 
	C117.233849,100.698669 120.245018,99.153961 120.718422,91.638641 
	C121.429428,80.351089 132.503784,73.311806 142.561600,77.754280 
	C150.605362,81.307167 153.985123,90.808296 150.050140,98.805908 
	C146.200958,106.629158 136.689972,109.629669 128.746399,105.245789 
	C126.049957,103.757683 123.926498,102.664886 121.175430,105.133133 
	C119.640121,106.510605 118.968964,107.668343 119.214661,109.768745 
	C119.502213,112.227051 119.588943,114.829391 119.088501,117.228600 
	C118.472610,120.181297 120.505783,120.958473 122.170837,122.248505 
	C123.858841,123.556313 125.368004,123.535072 127.126831,122.240608 
	C131.658295,118.905540 136.736862,118.587685 141.853012,120.417915 
	C149.613022,123.193977 153.508194,131.732529 150.875458,139.628983 
	C148.201859,147.648041 140.427444,151.574005 131.249420,149.238297 
M95.047073,121.665817 
	C99.062477,123.517326 102.900841,123.300316 106.136520,120.168190 
	C108.634789,117.749878 109.962929,114.722084 108.997299,111.115494 
	C107.777939,106.561241 104.632286,103.853767 100.104538,103.574181 
	C96.005714,103.321068 92.587250,105.382042 91.007294,109.356728 
	C89.137314,114.060974 90.159058,118.183212 95.047073,121.665817 
M141.653275,87.979851 
	C139.554276,85.240791 136.694504,84.541527 133.684387,85.753189 
	C131.100586,86.793236 129.515060,89.053535 129.444870,91.970970 
	C129.378006,94.750114 131.009491,96.620773 133.318619,97.874702 
	C135.749969,99.194992 138.146866,98.920227 140.251694,97.138435 
	C143.015839,94.798515 143.479141,91.897415 141.653275,87.979851 
M138.511154,141.025787 
	C141.798691,139.550003 143.311920,137.052872 142.706589,133.457535 
	C142.247345,130.729797 140.527130,129.014008 137.886322,128.388565 
	C135.292160,127.774162 132.924545,128.297318 131.199631,130.526764 
	C129.592255,132.604309 128.663483,134.836975 130.098099,137.402481 
	C131.792175,140.431992 134.179764,142.138062 138.511154,141.025787 
M105.875633,158.447098 
	C107.314163,154.902847 105.878372,152.286575 102.996193,150.376740 
	C100.537781,148.747726 97.926750,148.965439 95.592056,150.766296 
	C93.034172,152.739319 92.553528,155.472107 93.488380,158.368454 
	C95.231865,163.770065 101.234871,164.108154 105.875633,158.447098 
M106.328827,71.987869 
	C105.942734,66.679466 103.120522,63.825413 98.774742,64.348557 
	C95.087868,64.792389 92.722939,68.015625 93.218010,71.894623 
	C93.608528,74.954330 95.570312,76.720039 98.333794,77.350334 
	C102.246719,78.242790 104.647552,76.149864 106.328827,71.987869 
z"/>
</svg>